<svg xmlns="http://www.w3.org/2000/svg" width="500" height="500" style="width:100%;height:100%"><defs><clipPath id="b"><path d="M0 0h500v500H0z"/></clipPath><filter id="a" filterUnits="objectBoundingBox" x="0%" y="0%" width="100%" height="100%"><feComponentTransfer in="SourceGraphic"><feFuncA type="table" tableValues="1.0 0.0"/></feComponentTransfer></filter><mask id="c"><g filter="url(#a)"><g display="block"><path fill-opacity="0" stroke="#08A88A" stroke-width="0" d="M446.726 187.65V439.2H44.676V187.65h402.05z"/><path fill="red" d="M46.75-29.25v58.5h-93.5v-58.5h93.5z" transform="matrix(4.3 0 0 4.3 245.7 313.425)"/></g></g></mask></defs><g clip-path="url(#b)"><g mask="url(#c)" display="block"><path stroke-linecap="round" stroke-linejoin="round" stroke="#08A88A" stroke-width="12.642" d="M122.36 185.642L103.8 154.338l100.512-64.581 58.747 97.115m-22.786-57.065l38.713-25.504 49.072 82.603m-10.591-34.886l40.626-26.23 34.344 59.878" fill="none"/></g><g display="block"><path stroke-linecap="round" stroke-linejoin="round" stroke="#08A88A" stroke-width="12.642" d="M362.085 259.61L336.21 369.158m-30.026-90.902l-10.922 90.941m-42.828-78.81l-.4 78.81M142.084 259.722l26.127 109.59m29.975-89.298l11.077 88.438" fill="none"/><path stroke-linecap="round" stroke-linejoin="round" stroke="#121331" stroke-width="12.642" d="M250.805 230.65c5.933 0 10.75 4.817 10.75 10.75s-4.817 10.75-10.75 10.75-10.75-4.817-10.75-10.75 4.817-10.75 10.75-10.75zm1.178 4.752l.327-143.968" fill="none"/><path fill="#121331" d="M250.805 230.65c5.933 0 10.75 4.817 10.75 10.75s-4.817 10.75-10.75 10.75-10.75-4.817-10.75-10.75 4.817-10.75 10.75-10.75zm1.178 4.752l.327-143.968"/><path stroke-linecap="round" stroke-linejoin="round" stroke="#121331" stroke-width="12.642" d="M434.9 200.55v17.2c0 7.12-5.78 12.9-12.9 12.9H78.002c-7.12 0-12.9-5.78-12.9-12.9v-17.2c0-7.12 5.78-12.9 12.9-12.9h344c7.12 0 12.9 5.78 12.9 12.9z" fill="none"/><g><path stroke-linecap="round" stroke-linejoin="round" stroke="#121331" stroke-width="12.642" d="M80.151 231.725l46.316 154.96c3.398 11.37 15.791 20.6 27.657 20.6h193.332c11.866 0 24.167-9.257 27.453-20.66L419.85 230.65" fill="none"/></g></g></g></svg>